<svg width="342" height="700" viewBox="0 0 342 700" fill="none" xmlns="http://www.w3.org/2000/svg">
<path d="M291.953 0H50.4395C37.7982 0 25.6745 4.99856 16.7357 13.896C7.79689 22.7936 2.77515 34.8612 2.77515 47.4442V652.556C2.77515 665.139 7.79689 677.206 16.7357 686.104C25.6745 695.001 37.7982 700 50.4395 700H291.953C304.595 700 316.718 695.001 325.657 686.104C334.596 677.206 339.618 665.139 339.618 652.556V47.4442C339.618 34.8612 334.596 22.7936 325.657 13.896C316.718 4.99856 304.595 0 291.953 0ZM334.993 650.895C334.993 662.692 330.288 674.005 321.911 682.35C313.535 690.694 302.172 695.387 290.321 695.397H52.1081C46.2355 695.399 40.4198 694.25 34.9935 692.014C29.5672 689.779 24.6365 686.501 20.483 682.369C16.3296 678.236 13.0348 673.329 10.7869 667.929C8.53895 662.529 7.38197 656.741 7.38197 650.895V49.1051C7.38197 37.3025 12.0922 25.9834 20.4767 17.6378C28.861 9.2921 40.2326 4.6036 52.0899 4.6036H290.321C302.178 4.6036 313.55 9.2921 321.935 17.6378C330.319 25.9834 335.029 37.3025 335.029 49.1051L334.993 650.895Z" fill="black"/>
<path d="M290.321 4.60352H52.1078C46.2351 4.60115 40.4195 5.75046 34.9932 7.98582C29.5668 10.2211 24.6361 13.4987 20.4827 17.6313C16.3293 21.7639 13.0344 26.6705 10.7865 32.0708C8.53859 37.4712 7.38158 43.2595 7.38159 49.105V650.895C7.38159 662.697 12.0919 674.016 20.4763 682.362C28.8606 690.707 40.2323 695.397 52.0896 695.397H290.321C302.178 695.397 313.55 690.707 321.934 682.362C330.319 674.016 335.029 662.697 335.029 650.895V49.105C335.029 37.3025 330.319 25.9834 321.934 17.6377C313.55 9.29203 302.178 4.60352 290.321 4.60352ZM332.725 649.559C332.725 661.108 328.116 672.184 319.912 680.35C311.708 688.516 300.581 693.103 288.978 693.103H53.4499C41.8475 693.103 30.7204 688.516 22.5162 680.35C14.3122 672.184 9.70313 661.108 9.70313 649.559V50.441C9.72716 38.9078 14.3468 27.8552 22.5483 19.7086C30.7498 11.5619 41.8632 6.98653 53.4499 6.98656H288.942C294.687 6.98656 300.376 8.11285 305.684 10.3012C310.991 12.4895 315.814 15.697 319.876 19.7405C323.938 23.784 327.161 28.5844 329.359 33.8674C331.557 39.1505 332.689 44.8128 332.689 50.5312L332.725 649.559Z" fill="#1A1A1A"/>
<path d="M290.321 695.632H52.108C40.1925 695.617 28.7693 690.899 20.3438 682.513C11.9183 674.126 7.17858 662.755 7.16418 650.895V49.1053C7.17858 37.2449 11.9183 25.8745 20.3438 17.4879C28.7693 9.10135 40.1925 4.38347 52.108 4.36914H290.321C302.236 4.38347 313.66 9.10135 322.085 17.4879C330.511 25.8745 335.251 37.2449 335.265 49.1053V650.895C335.251 662.755 330.511 674.126 322.085 682.513C313.66 690.899 302.236 695.617 290.321 695.632ZM52.108 4.82047C40.3128 4.83481 29.0049 9.50512 20.6644 17.807C12.324 26.109 7.63201 37.3646 7.61761 49.1053V650.895C7.63201 662.636 12.324 673.892 20.6644 682.193C29.0049 690.495 40.3128 695.165 52.108 695.18H290.321C302.114 695.161 313.419 690.489 321.759 682.188C330.099 673.887 334.793 662.635 334.812 650.895V49.1053C334.793 37.3661 330.099 26.1132 321.759 17.8123C313.419 9.5114 302.114 4.83957 290.321 4.82047H52.108ZM288.943 693.321H53.4501C41.7944 693.307 30.6203 688.691 22.3785 680.487C14.1367 672.283 9.50016 661.161 9.48576 649.559V50.4413C9.50016 38.8394 14.1367 27.7169 22.3785 19.5132C30.6203 11.3094 41.7944 6.6943 53.4501 6.67998H288.943C300.598 6.6943 311.772 11.3094 320.014 19.5132C328.256 27.7169 332.892 38.8394 332.907 50.4413V649.559C332.892 661.161 328.256 672.283 320.014 680.487C311.772 688.691 300.598 693.307 288.943 693.321ZM53.4501 7.13131C41.9055 7.13131 30.8337 11.6962 22.6704 19.8218C14.5071 27.9473 9.92103 38.968 9.92103 50.4593V649.559C9.92103 661.051 14.5071 672.071 22.6704 680.197C30.8337 688.322 41.9055 692.887 53.4501 692.887H288.943C300.487 692.887 311.559 688.322 319.723 680.197C327.886 672.071 332.471 661.051 332.471 649.559V50.4413C332.471 38.95 327.886 27.9293 319.723 19.8037C311.559 11.6781 300.487 7.11325 288.943 7.11325L53.4501 7.13131Z" fill="black"/>
<path d="M340.729 225.114H339.659V299.999H340.729V225.114Z" fill="url(#paint0_linear_1_426)"/>
<path d="M340.747 299.998V225.132L341.273 225.782C341.001 231.197 341.019 294.005 341.273 299.349L340.747 299.998Z" fill="url(#paint1_linear_1_426)"/>
<path d="M1.61428 188.523H0.544189V238.855H1.61428V188.523Z" fill="url(#paint2_linear_1_426)"/>
<path d="M0.525992 238.855V188.541L0 189.191C0.272057 194.606 0.253919 232.861 0 238.205L0.525992 238.855Z" fill="url(#paint3_linear_1_426)"/>
<path d="M2.77503 188.541H1.61426V238.873H2.77503V188.541Z" fill="url(#paint4_linear_1_426)"/>
<path d="M1.61428 256.136H0.544189V306.469H1.61428V256.136Z" fill="url(#paint5_linear_1_426)"/>
<path d="M0.525992 306.469V256.136L0 256.804C0.272057 262.22 0.253919 300.457 0 305.819L0.525992 306.469Z" fill="url(#paint6_linear_1_426)"/>
<path d="M2.77503 256.136H1.61426V306.469H2.77503V256.136Z" fill="url(#paint7_linear_1_426)"/>
<path d="M1.61428 136.023H0.544189V163.337H1.61428V136.023Z" fill="url(#paint8_linear_1_426)"/>
<path d="M0.525992 163.337V136.041L0 136.691C0.272057 142.106 0.253919 157.344 0 162.687L0.525992 163.337Z" fill="url(#paint9_linear_1_426)"/>
<path d="M2.77503 136.041H1.61426V163.355H2.77503V136.041Z" fill="url(#paint10_linear_1_426)"/>
<path d="M187.864 698.754H154.528C154.03 698.719 153.53 698.787 153.059 698.953L151.59 699.585C151.318 699.765 152.043 699.946 153.059 699.946H189.333C190.349 699.946 191.147 699.765 190.784 699.585L189.315 698.953C188.85 698.789 188.357 698.721 187.864 698.754Z" fill="black"/>
<path d="M205.278 49.318H135.176C133.302 49.318 131.444 48.9369 129.712 48.1966C127.979 47.4563 126.406 46.3712 125.081 45.0034C123.755 43.6356 122.705 42.012 121.989 40.2254C121.274 38.4388 120.907 36.5243 120.909 34.5913C120.909 32.6603 121.278 30.7481 121.995 28.964C122.712 27.1798 123.763 25.5588 125.088 24.1933C126.413 22.8277 127.986 21.7446 129.716 21.0056C131.447 20.2666 133.303 19.8862 135.176 19.8862H205.278C209.062 19.8862 212.691 21.4355 215.367 24.1933C218.042 26.951 219.546 30.6913 219.546 34.5913C219.548 36.5243 219.181 38.4388 218.465 40.2254C217.749 42.012 216.699 43.6356 215.374 45.0034C214.049 46.3712 212.476 47.4563 210.743 48.1966C209.011 48.9369 207.153 49.318 205.278 49.318Z" fill="black"/>
<path d="M201.25 41.3635C204.764 41.3635 207.614 38.3364 207.614 34.6022C207.614 30.868 204.764 27.8408 201.25 27.8408C197.736 27.8408 194.886 30.868 194.886 34.6022C194.886 38.3364 197.736 41.3635 201.25 41.3635Z" fill="url(#paint11_linear_1_426)"/>
<path d="M201.648 38.182C203.624 38.182 205.227 36.5794 205.227 34.6025C205.227 32.6256 203.624 31.0229 201.648 31.0229C199.671 31.0229 198.068 32.6256 198.068 34.6025C198.068 36.5794 199.671 38.182 201.648 38.182Z" fill="url(#paint12_linear_1_426)"/>
<path d="M204.44 34.5817C204.44 35.2167 204.257 35.8374 203.914 36.3654C203.571 36.8934 203.083 37.3049 202.513 37.5479C201.943 37.7909 201.315 37.8545 200.709 37.7306C200.104 37.6067 199.548 37.301 199.111 36.8519C198.674 36.4029 198.377 35.8309 198.257 35.208C198.137 34.5853 198.198 33.9397 198.434 33.353C198.67 32.7664 199.07 32.265 199.584 31.9122C200.097 31.5595 200.701 31.3711 201.318 31.3711C202.146 31.3711 202.94 31.7094 203.526 32.3115C204.111 32.9136 204.44 33.7302 204.44 34.5817Z" fill="url(#paint13_linear_1_426)"/>
<path style="mix-blend-mode:multiply" d="M204.44 34.5817C204.44 35.2167 204.257 35.8374 203.914 36.3654C203.571 36.8934 203.083 37.3049 202.513 37.5479C201.943 37.7909 201.315 37.8545 200.709 37.7306C200.104 37.6067 199.548 37.301 199.111 36.8519C198.674 36.4029 198.377 35.8309 198.257 35.208C198.137 34.5853 198.198 33.9397 198.434 33.353C198.67 32.7664 199.07 32.265 199.584 31.9122C200.097 31.5595 200.701 31.3711 201.318 31.3711C202.146 31.3711 202.94 31.7094 203.526 32.3115C204.111 32.9136 204.44 33.7302 204.44 34.5817Z" fill="url(#paint14_radial_1_426)"/>
<path style="mix-blend-mode:screen" d="M204.432 36.5908C204.432 36.3798 204.264 36.1775 203.966 36.0284C203.667 35.8793 203.263 35.7954 202.841 35.7954C202.419 35.7954 202.014 35.8793 201.716 36.0284C201.418 36.1775 201.25 36.3798 201.25 36.5908C201.246 36.6958 201.284 36.8001 201.363 36.8976C201.442 36.995 201.559 37.0835 201.707 37.1578C201.855 37.232 202.033 37.2905 202.228 37.3298C202.423 37.3691 202.631 37.3882 202.841 37.3862C203.263 37.3862 203.667 37.3024 203.966 37.1532C204.264 37.004 204.432 36.8017 204.432 36.5908Z" fill="url(#paint15_radial_1_426)"/>
<defs>
<linearGradient id="paint0_linear_1_426" x1="340.222" y1="225.114" x2="340.222" y2="299.999" gradientUnits="userSpaceOnUse">
<stop stop-color="#3B3B3B"/>
<stop offset="0.02" stop-color="#E6E6E6"/>
<stop offset="0.04" stop-color="#333333"/>
<stop offset="0.08"/>
<stop offset="0.11" stop-color="#666666"/>
<stop offset="0.9" stop-color="#313131"/>
<stop offset="0.94"/>
<stop offset="0.96" stop-color="#333333"/>
<stop offset="0.98" stop-color="#CCCCCC"/>
<stop offset="1" stop-color="#2C2C2C"/>
</linearGradient>
<linearGradient id="paint1_linear_1_426" x1="341.001" y1="225.132" x2="341.001" y2="299.998" gradientUnits="userSpaceOnUse">
<stop stop-color="#A0A0A0"/>
<stop offset="0.06" stop-color="#333333"/>
<stop offset="0.19" stop-color="#8A8A8A"/>
<stop offset="0.81" stop-color="#8A8A8A"/>
<stop offset="0.92" stop-color="#333333"/>
<stop offset="1" stop-color="#A0A0A0"/>
</linearGradient>
<linearGradient id="paint2_linear_1_426" x1="1.07017" y1="188.523" x2="1.07017" y2="238.855" gradientUnits="userSpaceOnUse">
<stop stop-color="#3B3B3B"/>
<stop offset="0.02" stop-color="#E6E6E6"/>
<stop offset="0.04" stop-color="#333333"/>
<stop offset="0.08"/>
<stop offset="0.11" stop-color="#666666"/>
<stop offset="0.9" stop-color="#313131"/>
<stop offset="0.94"/>
<stop offset="0.96" stop-color="#333333"/>
<stop offset="0.98" stop-color="#CCCCCC"/>
<stop offset="1" stop-color="#2C2C2C"/>
</linearGradient>
<linearGradient id="paint3_linear_1_426" x1="0.253927" y1="188.541" x2="0.253927" y2="238.855" gradientUnits="userSpaceOnUse">
<stop stop-color="#A0A0A0"/>
<stop offset="0.06" stop-color="#333333"/>
<stop offset="0.19" stop-color="#8A8A8A"/>
<stop offset="0.81" stop-color="#8A8A8A"/>
<stop offset="0.92" stop-color="#333333"/>
<stop offset="1" stop-color="#A0A0A0"/>
</linearGradient>
<linearGradient id="paint4_linear_1_426" x1="2.19464" y1="238.873" x2="2.19464" y2="188.541" gradientUnits="userSpaceOnUse">
<stop stop-color="#353540"/>
<stop offset="0.05"/>
<stop offset="0.52" stop-color="#333333"/>
<stop offset="0.96"/>
<stop offset="1" stop-color="#262C31"/>
</linearGradient>
<linearGradient id="paint5_linear_1_426" x1="1.07017" y1="256.136" x2="1.07017" y2="306.469" gradientUnits="userSpaceOnUse">
<stop stop-color="#3B3B3B"/>
<stop offset="0.02" stop-color="#E6E6E6"/>
<stop offset="0.04" stop-color="#333333"/>
<stop offset="0.08"/>
<stop offset="0.11" stop-color="#666666"/>
<stop offset="0.9" stop-color="#313131"/>
<stop offset="0.94"/>
<stop offset="0.96" stop-color="#333333"/>
<stop offset="0.98" stop-color="#CCCCCC"/>
<stop offset="1" stop-color="#2C2C2C"/>
</linearGradient>
<linearGradient id="paint6_linear_1_426" x1="0.253927" y1="256.136" x2="0.253927" y2="306.469" gradientUnits="userSpaceOnUse">
<stop stop-color="#A0A0A0"/>
<stop offset="0.06" stop-color="#333333"/>
<stop offset="0.19" stop-color="#8A8A8A"/>
<stop offset="0.81" stop-color="#8A8A8A"/>
<stop offset="0.92" stop-color="#333333"/>
<stop offset="1" stop-color="#A0A0A0"/>
</linearGradient>
<linearGradient id="paint7_linear_1_426" x1="2.19465" y1="306.487" x2="2.19465" y2="256.136" gradientUnits="userSpaceOnUse">
<stop stop-color="#353540"/>
<stop offset="0.05"/>
<stop offset="0.52" stop-color="#333333"/>
<stop offset="0.96"/>
<stop offset="1" stop-color="#262C31"/>
</linearGradient>
<linearGradient id="paint8_linear_1_426" x1="1.07017" y1="136.023" x2="1.07017" y2="163.337" gradientUnits="userSpaceOnUse">
<stop stop-color="#3B3B3B"/>
<stop offset="0.02" stop-color="#E6E6E6"/>
<stop offset="0.04" stop-color="#333333"/>
<stop offset="0.08"/>
<stop offset="0.11" stop-color="#666666"/>
<stop offset="0.9" stop-color="#313131"/>
<stop offset="0.94"/>
<stop offset="0.96" stop-color="#333333"/>
<stop offset="0.98" stop-color="#CCCCCC"/>
<stop offset="1" stop-color="#2C2C2C"/>
</linearGradient>
<linearGradient id="paint9_linear_1_426" x1="0.253928" y1="136.041" x2="0.253928" y2="163.337" gradientUnits="userSpaceOnUse">
<stop stop-color="#A0A0A0"/>
<stop offset="0.06" stop-color="#333333"/>
<stop offset="0.19" stop-color="#8A8A8A"/>
<stop offset="0.81" stop-color="#8A8A8A"/>
<stop offset="0.92" stop-color="#333333"/>
<stop offset="1" stop-color="#A0A0A0"/>
</linearGradient>
<linearGradient id="paint10_linear_1_426" x1="2.19464" y1="163.355" x2="2.19464" y2="136.041" gradientUnits="userSpaceOnUse">
<stop stop-color="#353540"/>
<stop offset="0.05"/>
<stop offset="0.52" stop-color="#333333"/>
<stop offset="0.96"/>
<stop offset="1" stop-color="#262C31"/>
</linearGradient>
<linearGradient id="paint11_linear_1_426" x1="201.25" y1="40.9325" x2="201.25" y2="27.6366" gradientUnits="userSpaceOnUse">
<stop stop-color="#666666"/>
<stop offset="1" stop-color="#010104"/>
</linearGradient>
<linearGradient id="paint12_linear_1_426" x1="201.648" y1="31.2335" x2="201.648" y2="38.2874" gradientUnits="userSpaceOnUse">
<stop stop-color="#0B131C"/>
<stop offset="1" stop-color="#354039"/>
</linearGradient>
<linearGradient id="paint13_linear_1_426" x1="203.518" y1="36.8442" x2="198.994" y2="32.4247" gradientUnits="userSpaceOnUse">
<stop stop-color="#231F20"/>
<stop offset="0.08" stop-color="#222326"/>
<stop offset="0.2" stop-color="#1F2C37"/>
<stop offset="0.33" stop-color="#1A3D54"/>
<stop offset="0.47" stop-color="#13537C"/>
<stop offset="0.62" stop-color="#0B71AE"/>
<stop offset="0.78" stop-color="#0095EE"/>
<stop offset="0.8" stop-color="#0488D6"/>
<stop offset="0.84" stop-color="#0D689F"/>
<stop offset="0.88" stop-color="#154E72"/>
<stop offset="0.91" stop-color="#1B394E"/>
<stop offset="0.95" stop-color="#1F2B35"/>
<stop offset="0.98" stop-color="#222225"/>
<stop offset="1" stop-color="#231F20"/>
</linearGradient>
<radialGradient id="paint14_radial_1_426" cx="0" cy="0" r="1" gradientUnits="userSpaceOnUse" gradientTransform="translate(201.318 34.5817) scale(3.12166 3.21058)">
<stop stop-color="#231F20"/>
<stop offset="0.2" stop-color="#175168"/>
<stop offset="0.38" stop-color="#0D78A2"/>
<stop offset="0.54" stop-color="#0695CB"/>
<stop offset="0.66" stop-color="#02A7E5"/>
<stop offset="0.73" stop-color="#00ADEE"/>
<stop offset="0.76" stop-color="#02A6E4"/>
<stop offset="0.81" stop-color="#0693C8"/>
<stop offset="0.87" stop-color="#0E749C"/>
<stop offset="0.94" stop-color="#184A5F"/>
<stop offset="1" stop-color="#231F20"/>
</radialGradient>
<radialGradient id="paint15_radial_1_426" cx="0" cy="0" r="1" gradientUnits="userSpaceOnUse" gradientTransform="translate(202.841 36.5908) scale(1.59077 0.795382)">
<stop stop-color="#CCCCCC"/>
<stop offset="0.02" stop-color="#C4C4C4"/>
<stop offset="0.22" stop-color="#898989"/>
<stop offset="0.41" stop-color="#585858"/>
<stop offset="0.59" stop-color="#323232"/>
<stop offset="0.75" stop-color="#161616"/>
<stop offset="0.89" stop-color="#060606"/>
<stop offset="1"/>
</radialGradient>
</defs>
</svg>
